<?xml version="1.0" standalone="no"?>
<svg viewBox="0 0 1024 1024" version="1.1" xmlns="http://www.w3.org/2000/svg" xmlns:xlink="http://www.w3.org/1999/xlink" width="128" height="128">
  <path d="M727.450757 0.509107v187.525062c0 24.483435 20.063458 44.350192 45.125424 44.350193h187.791186z m0 0" fill="#707070"/>
  <path d="M772.529898 278.007322v0.138847c-50.540475-0.138847-91.581469-40.497175-91.581469-90.250847V0H144.407141C99.848678 0 63.644203 35.498667 63.644203 79.467028v865.054373C63.644203 988.362486 99.721401 1024 144.407141 1024h734.803887c44.546893 0 80.762938-35.510237 80.762938-79.478599v-666.467796z m-79.594305 403.247729h-0.914079v7.567186a21.093243 21.093243 0 0 1-0.647955 6.271277 27.896768 27.896768 0 0 1-0.647954 6.942373c-8.469695 48.191638-48.203209 87.554893-89.626034 87.554893-41.156701 0-67.21374-39.224407-58.096091-87.554893 8.469695-48.191638 48.203209-87.531751 89.626034-87.531751 2.082712 0 3.471186 0.636384 4.940655 0.636384V403.120452l-253.22305 41.908791v283.00583c0 6.942373 0 13.884746-1.434757 20.769266-8.469695 48.191638-48.191638 87.543322-89.626034 87.543322-40.497175 0-67.202169-39.224407-58.096091-87.543322 8.469695-48.191638 48.203209-87.543322 89.626034-87.543322 2.082712 0 3.471186 0.636384 4.952226 0.636384V422.327684a27.480226 27.480226 0 0 1 23.141243-26.913266l307.778531-51.662825a26.855412 26.855412 0 0 1 22.412294 6.155571c6.248136 5.507616 9.765605 12.438418 9.765604 20.757695z" fill="#707070"/>
</svg>
