<?xml version="1.0" standalone="no"?>
<svg viewBox="0 0 1024 1024" version="1.1" xmlns="http://www.w3.org/2000/svg" xmlns:xlink="http://www.w3.org/1999/xlink" width="128" height="128">
  <path fill="#8c8c8c" d="M162.02752 764.22144H95.47776a15.36 15.36 0 1 0 0 30.72h66.54976a15.36 15.36 0 1 0 0-30.72zM357.87776 416.06144h143.35488a15.36 15.36 0 1 0 0-30.72H357.87776a15.36 15.36 0 1 0 0 30.72zM557.55264 449.34144H357.87776a15.36 15.36 0 1 0 0 30.72h199.67488a15.36 15.36 0 1 0 0-30.72zM450.02752 513.33632H357.87776a15.36 15.36 0 1 0 0 30.72h92.14976a15.36 15.36 0 1 0 0-30.72z"/>
  <path fill="#8c8c8c" d="M771.38432 695.10144H758.784v-369.92c0-36.70016-29.85984-66.56-66.56-66.56H422.144c-36.70016 0-66.56 29.85984-66.56 66.56v2.56h-20.51072c-36.70016 0-66.56 29.85984-66.56 66.56v369.92h-50.12992a15.36 15.36 0 1 0 0 30.72h325.58592l27.19232 27.19232c4.99712 4.99712 11.55072 7.49568 18.0992 7.49568s13.1072-2.49856 18.0992-7.49568a25.56416 25.56416 0 0 0 5.7856-27.19232h71.168a15.36 15.36 0 1 0 0-30.72h-12.60544v-38.39488h99.67616a15.36 15.36 0 1 0 0-30.72512z m-130.39616 0v69.12h-55.34208l-44.81024-44.81024c-5.90336-5.90848-13.9776-8.23296-21.66784-7.15264l-9.74336-9.74336a88.24832 88.24832 0 0 0 15.81568-50.4576c0-48.96768-39.8336-88.8064-88.80128-88.8064s-88.8064 39.83872-88.8064 88.8064c0 48.96256 39.83872 88.80128 88.8064 88.80128 19.15392 0 36.85888-6.15424 51.3792-16.50688l9.6512 9.6512c-1.05984 7.66976 1.26464 15.7184 7.16288 21.61664l8.60672 8.60672H299.22816V394.30144c0-19.7632 16.08192-35.84 35.84-35.84h270.08c19.75808 0 35.84 16.0768 35.84 35.84v300.8z m-146.46784-43.04896c0 32.0256-26.05568 58.08128-58.08128 58.08128-32.03072 0-58.0864-26.05568-58.0864-58.08128s26.05568-58.0864 58.0864-58.0864c32.0256 0 58.08128 26.0608 58.08128 58.0864z m233.54368 43.04896h-56.35072v-300.8c0-36.70016-29.85984-66.56-66.56-66.56H386.304v-2.56c0-19.7632 16.08192-35.84 35.84-35.84h270.08c19.75808 0 35.84 16.0768 35.84 35.84v369.92zM215.79264 291.89632a15.36 15.36 0 0 0 15.36-15.36v-17.90976h17.90976a15.36 15.36 0 1 0 0-30.72h-17.90976v-17.90976a15.36 15.36 0 1 0-30.72 0v17.90976h-17.90976a15.36 15.36 0 1 0 0 30.72h17.90976v17.90976a15.36 15.36 0 0 0 15.36 15.36zM962.44736 585.71776h-9.62048v-9.62048a8.2432 8.2432 0 1 0-16.49664 0v9.62048h-9.62048a8.2432 8.2432 0 1 0 0 16.49664h9.62048v9.62048a8.2432 8.2432 0 1 0 16.49664 0v-9.62048h9.62048a8.2432 8.2432 0 1 0 0-16.49664zM176.52736 627.712h-9.62048v-9.62048a8.2432 8.2432 0 1 0-16.49664 0v9.62048h-9.62048a8.2432 8.2432 0 1 0 0 16.49664h9.62048v9.62048a8.2432 8.2432 0 1 0 16.49664 0v-9.62048h9.62048a8.2432 8.2432 0 1 0 0-16.49664zM154.58816 417.34144c0-26.11712-21.24288-47.36-47.36-47.36s-47.36 21.24288-47.36 47.36c0 26.112 21.24288 47.36 47.36 47.36s47.36-21.248 47.36-47.36z m-64 0c0-9.17504 7.46496-16.64 16.64-16.64s16.64 7.46496 16.64 16.64-7.46496 16.64-16.64 16.64-16.64-7.46496-16.64-16.64zM877.78816 295.74144c-26.11712 0-47.36 21.24288-47.36 47.36 0 26.112 21.24288 47.36 47.36 47.36s47.36-21.24288 47.36-47.36-21.24288-47.36-47.36-47.36z m0 64c-9.17504 0-16.64-7.46496-16.64-16.64s7.46496-16.64 16.64-16.64 16.64 7.46496 16.64 16.64-7.46496 16.64-16.64 16.64z"/>
</svg>
