<?xml version="1.0" standalone="no"?><!DOCTYPE svg PUBLIC "-//W3C//DTD SVG 1.1//EN" "http://www.w3.org/Graphics/SVG/1.1/DTD/svg11.dtd"><svg t="1578993598386" class="icon" viewBox="0 0 1024 1024" version="1.1" xmlns="http://www.w3.org/2000/svg" p-id="19524" xmlns:xlink="http://www.w3.org/1999/xlink" width="128" height="128"><defs><style type="text/css"></style></defs><path d="M821.75089 77.711032H206.986477c-90.920996 0-164.896797 73.975801-164.896797 164.896797v542.519573c0 90.920996 73.975801 164.896797 164.896797 164.896797H821.75089c90.920996 0 164.896797-73.975801 164.896797-164.896797V242.607829c0-90.920996-73.975801-164.896797-164.896797-164.896797z m87.094662 124.264769c5.830605 12.390036 9.11032 26.146619 9.11032 40.632028V301.551601H809.178648l99.666904-99.5758z m-49.377936-47.829182L720.535231 293.079004c-2.55089 2.55089-4.464057 5.466192-6.012811 8.472597h-110.234876l155.148755-155.148754H821.75089c13.392171 0 26.146619 2.733096 37.716726 7.743772z m-402.220641-7.743772l-146.676156 146.676157c-2.55089 2.55089-4.464057 5.466192-6.012812 8.472597h-110.234875l155.148754-155.148754h107.775089z m97.207118 0h107.775088l-146.676156 146.676157c-2.55089 2.55089-4.464057 5.466192-6.012811 8.472597h-110.234876l155.148755-155.148754z m-347.467616 0H252.355872L110.781495 287.977224v-45.369395c0-53.113167 43.000712-96.204982 96.204982-96.204982zM821.75089 881.332384H206.986477c-53.113167 0-96.204982-43.091815-96.204982-96.204982V370.243416h807.174377v414.883986c0 53.20427-43.091815 96.204982-96.204982 96.204982z" fill="#333333" p-id="19525"></path><path d="M635.627046 397.93879l-177.104626 56.392883c-21.500356 6.377224-38.809964 29.517438-38.809964 51.837722v194.140925s-13.027758-9.019217-41.543061-4.737366c-41.998577 6.103915-76.071174 39.629893-76.071174 74.704626s33.981495 56.575089 76.071174 50.471174c41.998577-6.103915 72.882562-38.536655 72.882562-73.702491V581.147331c0-15.396441 17.765125-22.046975 17.765125-22.046975l156.697509-51.017794s17.582918-6.103915 17.582918 10.659075v133.010676s-15.94306-9.292527-44.640569-5.830605c-41.998577 5.283986-76.071174 38.081139-76.071175 73.155872 0 35.165836 34.072598 57.486121 76.071175 52.111032 41.998577-5.283986 76.071174-37.990036 76.071174-73.155872V426.909609c-0.091103-22.320285-17.400712-35.348043-38.901068-28.970819z m0 0" p-id="19526"></path></svg>
