<svg width="906" height="696" xmlns="http://www.w3.org/2000/svg" class="icon">
 <defs>
  <style type="text/css"/>
 </defs>
 <g>
  <title>background</title>
  <rect fill="none" id="canvas_background" height="698" width="908" y="-1" x="-1"/>
 </g>
 <g>
  <title>Layer 1</title>
  <path id="svg_1" fill="#8a8a8a" d="m832.480006,0.064006l-317.76,0.032l-29.248,64.352l347.04,-0.032a8.96,8.96 0 0 1 8.96,8.96l0,549.184a8.96,8.96 0 0 1 -8.96,8.96l-342.4,0l-29.248,64.352l371.648,0a73.408,73.408 0 0 0 73.344,-73.344l0,-549.184a73.44,73.44 0 0 0 -73.344,-73.344l-0.032,0.064zm-459.008,631.456l-300.096,0a8.96,8.96 0 0 1 -8.96,-8.96l0,-549.184a8.96,8.96 0 0 1 8.96,-8.96l316.704,-0.032l29.248,-64.352l-345.984,0.032a73.44,73.44 0 0 0 -73.344,73.344l0,549.184a73.408,73.408 0 0 0 73.344,73.344l330.432,-0.064l29.248,-64.352l-59.584,0.064l0.032,-0.064zm-7.008,-185.312l-75.936,-80.768l-145.024,161.76l327.04,0l42.912,-103.872l-63.168,-103.872l-85.824,126.752zm-9.248,-240.544a88.032,88.032 0 1 0 -176.096,0a88.032,88.032 0 0 0 176.096,0zm158.24,321.536l265.408,0l-219.2,-364l-68.896,95.936l91.104,141.504l-68.448,126.528l0.032,0.032z"/>
 </g>
</svg>