<?xml version="1.0" standalone="no"?><!DOCTYPE svg PUBLIC "-//W3C//DTD SVG 1.1//EN" "http://www.w3.org/Graphics/SVG/1.1/DTD/svg11.dtd"><svg class="icon" width="128px" height="124.83px" viewBox="0 0 1050 1024" version="1.1" xmlns="http://www.w3.org/2000/svg"><path d="M980.62441 0.918974H68.450462C29.643487 0.918974 0 30.562462 0 69.369436v866.540308c0 38.833231 29.643487 68.450462 68.450462 68.450461h912.173948c38.806974 0 68.450462-29.617231 68.450462-68.450461V69.369436C1048.94359 30.562462 1019.300103 0.918974 980.62441 0.918974z m-66.087384 182.508308H738.855385L606.523077 55.085949h175.707897l132.279795 128.341333z m-228.141949 0h-175.550359l-132.306051-127.921231h175.576615l132.279795 127.921231z m-228.010667 0h-175.550359l-132.332307-127.553641h175.576615l132.332308 127.553641zM68.450462 55.768615h29.61723l132.306052 127.658667H45.633641V78.585436c0-13.653333 9.189744-22.843077 22.816821-22.843077z m919.709538 866.724103c0 13.758359-8.927179 23.000615-22.396718 23.000615H85.438359c-13.443282 0-22.501744-9.242256-22.501744-23.000615V239.878564h925.223385v698.499282-15.885128z m-21.162667-739.196718L834.691282 55.085949h145.933128c13.653333 0 22.843077 9.189744 22.843077 22.843077V183.269744h-36.470154zM433.335795 810.430359c11.421538 0 25.048615-2.205538 36.470154-9.189744l259.990974-150.501743a64.643282 64.643282 0 0 0 0-114.084103l-259.990974-150.370461c-11.421538-6.826667-22.843077-9.189744-36.470154-9.189744-36.443897 0-68.424205 18.221949-68.424205 57.028923v319.277949c0 38.806974 31.849026 57.028923 68.424205 57.028923z m-22.816821-367.117128c0-13.653333 11.421538-22.816821 22.843077-22.816821 4.568615 0 9.163487 0 11.395282 2.231795l259.990975 150.528c9.189744 6.826667 11.421538 15.990154 11.421538 18.221949 0 4.594872 0 13.653333-11.421538 18.221949l-259.990975 150.528c-4.594872 2.231795-6.826667 2.231795-11.421538 2.231794a22.89559 22.89559 0 0 1-22.816821-22.843076V443.339487z" /></svg>
